<?xml version="1.0" encoding="UTF-8" standalone="no"?><!DOCTYPE svg PUBLIC "-//W3C//DTD SVG 1.1//EN" "http://www.w3.org/Graphics/SVG/1.1/DTD/svg11.dtd"><svg width="100%" height="100%" viewBox="0 0 512 128" version="1.1" xmlns="http://www.w3.org/2000/svg" xmlns:xlink="http://www.w3.org/1999/xlink" xml:space="preserve" xmlns:serif="http://www.serif.com/" style="fill-rule:evenodd;clip-rule:evenodd;stroke-linecap:square;stroke-miterlimit:3;"><g><circle cx="72.465" cy="64" r="46.484" style="fill:#46226e;"/><g><path d="M94.34,46.227l-30.34,17.773" style="fill-rule:nonzero;stroke:#dfd3ed;stroke-width:2.73px;"/><circle cx="94.34" cy="46.227" r="6.836" style="fill:#c6b0de;"/><path d="M61.266,66.734l33.074,15.039" style="fill-rule:nonzero;stroke:#dfd3ed;stroke-width:2.73px;"/><circle cx="59.898" cy="65.367" r="6.836" style="fill:#936fbd;"/><circle cx="94.34" cy="81.773" r="6.836" style="fill:#6b3e9f;"/></g><g><path d="M59.316,41.268c0,-1.325 -1.075,-2.4 -2.402,-2.4l-45.463,0c-1.325,0 -2.4,1.075 -2.4,2.4l0,45.464c0,1.325 1.075,2.4 2.4,2.4l45.463,0c1.327,0 2.402,-1.075 2.402,-2.4l0,-45.464Z" style="fill:#5c2d91;"/><path d="M45.714,50.111l0,28.431l-5.858,0l0,-12.185l-11.423,0l0,12.185l-5.858,0l0,-28.431l5.858,0l0,11.521l11.423,0l0,-11.521l5.858,0Z" style="fill:#fff;fill-rule:nonzero;"/></g></g><path d="M159.362,49.421c-2.706,-2.374 -6.019,-2.982 -9.222,-2.761c-2.706,0.166 -5.633,1.16 -7.566,3.314l-0.938,1.104l0,-13.585l-5.136,0l0,39.76l5.798,0l0,-13.087c0,-2.154 0,-4.418 0.387,-6.075c0.331,-1.822 1.16,-3.424 2.43,-4.418c1.215,-0.994 2.706,-1.491 4.362,-1.601c2.099,-0.055 3.921,0.497 5.191,1.657c2.319,1.988 2.761,5.467 2.761,9.277l0,14.247l5.854,0l0,-14.468c0.055,-4.97 -0.276,-10.161 -3.921,-13.364Z" style="fill-rule:nonzero;"/><path d="M196.526,47.433l-8.614,23.304l-9.057,-23.304l-5.853,0l12.204,30.704c-1.436,3.921 -2.154,5.246 -3.258,6.074c-1.049,0.718 -2.154,0.773 -3.976,0.718l0,5.578c3.368,0 5.135,-0.056 6.903,-1.326c1.932,-1.435 3.092,-3.92 4.252,-6.958l13.198,-34.79l-5.799,0Z" style="fill-rule:nonzero;"/><path d="M236.949,51.354c-2.485,-3.092 -6.351,-4.749 -10.437,-4.749c-3.589,0 -6.958,1.325 -9.333,3.645l0,-2.817l-5.135,0l0,43.074l5.798,0l0,-15.463c2.319,2.044 5.412,3.038 8.78,3.038c4.032,0 7.842,-1.712 10.327,-4.805c2.485,-3.092 3.369,-6.958 3.369,-10.934c0,-4.031 -0.994,-7.952 -3.369,-10.989Zm-4.639,18.389c-1.491,2.154 -3.976,3.093 -6.461,3.093c-2.595,0 -4.859,-0.884 -6.405,-2.706c-1.602,-1.933 -2.265,-4.86 -2.265,-7.787c0,-2.982 0.663,-5.853 2.265,-7.786c1.435,-1.878 3.699,-2.706 6.184,-2.706c2.762,0 5.136,0.884 6.627,3.037c1.381,1.878 1.933,4.584 1.933,7.455c0,2.817 -0.497,5.523 -1.878,7.4Z" style="fill-rule:nonzero;"/><path d="M256.221,63.945l22.255,0c0.276,-4.86 -0.497,-9.278 -3.258,-12.646c-2.706,-3.203 -6.24,-4.694 -10.603,-4.694c-4.307,0 -8.394,1.657 -11.099,4.915c-2.375,2.982 -3.479,6.958 -3.479,11.099c0,3.756 1.049,7.511 3.479,10.548c2.65,3.203 7.013,4.915 11.431,4.915c2.705,0 5.522,-0.773 7.841,-2.209c2.264,-1.381 4.142,-3.59 5.246,-6.185l-5.632,-1.822c-0.608,1.27 -1.436,2.374 -2.762,3.313c-1.38,0.994 -3.037,1.436 -5.025,1.436c-2.595,0 -5.025,-0.994 -6.461,-2.982c-1.215,-1.602 -1.767,-3.59 -1.933,-5.688Zm8.394,-12.204c2.485,-0.056 4.915,0.883 6.351,2.761c1.049,1.38 1.436,2.982 1.601,4.804l-16.235,0c0.276,-1.712 0.773,-3.258 1.822,-4.639c1.657,-2.153 4.087,-2.982 6.461,-2.926Z" style="fill-rule:nonzero;"/><path d="M303.989,46.66c-2.154,0.055 -4.308,0.663 -6.13,1.988c-1.215,0.884 -2.154,1.933 -2.816,3.093l0,-4.308l-5.136,0l0,29.82l5.798,0l0,-15.02c0,-3.313 0.332,-6.019 2.43,-8.007c1.215,-1.27 3.092,-2.044 5.357,-2.154c1.822,-0.11 3.589,0.166 4.97,0.663l0,-5.412c-1.436,-0.552 -2.982,-0.773 -4.473,-0.663Z" style="fill-rule:nonzero;"/><path d="M341.319,55.275c-0.994,-2.982 -3.369,-5.798 -6.24,-7.179c-1.988,-1.049 -4.252,-1.491 -6.296,-1.491c-2.098,0 -4.252,0.166 -6.461,1.104c-2.926,1.271 -5.135,4.087 -5.135,7.511c0,1.435 0.497,3.534 1.767,4.914c1.38,1.436 3.368,2.32 5.135,2.982c1.436,0.497 2.651,0.829 6.903,2.044c2.651,0.773 5.191,1.491 5.191,3.865c0,1.16 -0.552,2.043 -1.546,2.761c-1.16,0.829 -3.479,1.215 -5.081,1.215c-2.208,0 -4.417,-0.607 -5.964,-2.153c-0.994,-0.939 -1.656,-2.32 -2.098,-3.7l-5.246,1.491c0.497,1.877 1.436,3.865 3.203,5.743c2.706,2.816 6.129,3.7 10.05,3.7c2.872,0 5.522,-0.442 8.007,-1.988c2.43,-1.491 3.976,-4.308 3.976,-7.069c0,-4.804 -3.81,-7.731 -9.111,-9.167c-2.375,-0.662 -4.142,-1.159 -5.799,-1.656c-2.429,-0.663 -4.086,-1.326 -4.086,-3.203c0,-2.099 2.982,-3.424 5.964,-3.314c3.313,0.056 6.13,1.547 7.4,4.915l5.467,-1.325Z" style="fill-rule:nonzero;"/><path d="M377.821,51.354c-2.485,-3.092 -6.351,-4.749 -10.437,-4.749c-3.59,0 -6.958,1.325 -9.333,3.645l0,-2.817l-5.136,0l0,43.074l5.799,0l0,-15.463c2.319,2.044 5.411,3.038 8.78,3.038c4.031,0 7.842,-1.712 10.327,-4.805c2.485,-3.092 3.368,-6.958 3.368,-10.934c0,-4.031 -0.994,-7.952 -3.368,-10.989Zm-4.639,18.389c-1.491,2.154 -3.976,3.093 -6.461,3.093c-2.596,0 -4.86,-0.884 -6.406,-2.706c-1.601,-1.933 -2.264,-4.86 -2.264,-7.787c0,-2.982 0.663,-5.853 2.264,-7.786c1.436,-1.878 3.7,-2.706 6.185,-2.706c2.761,0 5.136,0.884 6.627,3.037c1.38,1.878 1.932,4.584 1.932,7.455c0,2.817 -0.497,5.523 -1.877,7.4Z" style="fill-rule:nonzero;"/><path d="M416.807,77.253l0,-18.057c0,-3.645 -0.883,-7.179 -3.7,-9.554c-2.043,-1.767 -5.19,-3.037 -8.283,-3.037c-5.08,0 -9.001,1.657 -12.094,5.025l3.479,3.811c2.265,-2.485 5.026,-3.369 8.118,-3.369c3.866,0 6.406,1.878 6.682,5.357c-5.08,0.773 -11.155,1.38 -14.855,3.147c-3.755,1.823 -5.246,4.584 -5.246,8.394c0,5.577 3.976,9.112 9.83,9.112c4.804,0 8.173,-1.326 10.989,-5.081l0,4.252l5.08,0Zm-6.847,-8.338c-1.546,2.65 -4.418,4.252 -8.007,4.252c-3.038,0 -5.302,-1.878 -5.302,-4.639c0,-2.595 2.54,-4.141 5.522,-4.804c2.32,-0.497 5.578,-1.105 8.891,-1.602c0,2.651 0.055,4.86 -1.104,6.793Z" style="fill-rule:nonzero;"/><path d="M455.076,55.717c-0.828,-3.203 -2.816,-5.633 -5.356,-7.179c-2.375,-1.436 -4.584,-1.933 -7.621,-1.933c-4.694,0 -8.228,1.601 -10.989,4.915c-2.485,3.037 -3.479,6.792 -3.479,10.823c0,3.976 0.994,7.676 3.479,10.879c2.595,3.313 6.24,4.86 10.934,4.86c3.424,0 5.743,-0.608 8.228,-2.375c2.209,-1.546 3.921,-4.031 4.804,-6.627l-5.909,-1.435c-0.552,1.491 -1.27,2.65 -2.54,3.644c-1.27,0.994 -2.982,1.326 -4.583,1.326c-2.596,0 -4.86,-0.994 -6.296,-2.982c-1.491,-1.988 -1.988,-4.639 -1.988,-7.29c0,-2.65 0.497,-5.356 1.988,-7.344c1.436,-1.988 3.7,-2.927 6.296,-2.927c1.601,0 3.203,0.442 4.473,1.381c1.325,0.938 2.264,2.429 2.816,3.865l5.743,-1.601Z" style="fill-rule:nonzero;"/><path d="M469.655,63.945l22.254,0c0.276,-4.86 -0.497,-9.278 -3.258,-12.646c-2.706,-3.203 -6.24,-4.694 -10.602,-4.694c-4.308,0 -8.394,1.657 -11.1,4.915c-2.375,2.982 -3.479,6.958 -3.479,11.099c0,3.756 1.049,7.511 3.479,10.548c2.651,3.203 7.013,4.915 11.431,4.915c2.706,0 5.522,-0.773 7.841,-2.209c2.265,-1.381 4.142,-3.59 5.247,-6.185l-5.633,-1.822c-0.608,1.27 -1.436,2.374 -2.761,3.313c-1.381,0.994 -3.037,1.436 -5.025,1.436c-2.596,0 -5.026,-0.994 -6.461,-2.982c-1.215,-1.602 -1.768,-3.59 -1.933,-5.688Zm8.394,-12.204c2.485,-0.056 4.914,0.883 6.35,2.761c1.049,1.38 1.436,2.982 1.602,4.804l-16.236,0c0.276,-1.712 0.773,-3.258 1.823,-4.639c1.656,-2.153 4.086,-2.982 6.461,-2.926Z" style="fill-rule:nonzero;"/></svg>