<?xml version="1.0" standalone="no"?>
<!DOCTYPE svg PUBLIC "-//W3C//DTD SVG 20010904//EN"
 "http://www.w3.org/TR/2001/REC-SVG-20010904/DTD/svg10.dtd">
<svg version="1.0" xmlns="http://www.w3.org/2000/svg"
 width="700.000000pt" height="700.000000pt" viewBox="0 0 700.000000 700.000000"
 preserveAspectRatio="xMidYMid meet">
<metadata>
Created by potrace 1.11, written by Peter Selinger 2001-2013
</metadata>
<g transform="translate(0.000000,700.000000) scale(0.100000,-0.100000)"
fill="#000000" stroke="none">
<path d="M3750 5353 c-556 -28 -1064 -300 -1403 -750 l-78 -103 -445 0 c-456
0 -472 -1 -501 -39 -18 -23 -18 -1899 0 -1922 29 -38 45 -39 501 -39 l445 0
78 -102 c136 -181 329 -360 514 -475 443 -277 1009 -351 1513 -198 623 189
1103 688 1260 1313 42 166 56 280 56 462 0 182 -14 296 -56 462 -137 544 -529
1007 -1044 1234 -253 111 -572 171 -840 157z m1090 -901 c162 -80 197 -307 66
-434 -60 -59 -99 -73 -196 -73 -86 0 -108 8 -190 66 -13 9 -105 -41 -461 -250
l-446 -261 -6 -68 c-3 -37 -2 -70 1 -74 4 -4 205 -97 447 -207 l440 -200 30
29 c84 80 203 98 307 47 211 -103 191 -416 -31 -492 -121 -41 -252 9 -324 126
-19 32 -35 116 -30 156 l5 28 -458 208 c-456 207 -457 208 -478 188 -37 -34
-100 -61 -151 -63 l-50 -3 0 270 0 270 23 3 c45 7 129 -27 178 -71 l49 -43
440 258 440 258 -3 64 c-9 149 81 268 221 295 60 12 114 3 177 -27z m-2760
-622 l0 -230 225 0 225 0 0 230 0 230 120 0 120 0 0 -575 0 -576 -117 3 -118
3 -3 243 -2 242 -225 0 -225 0 0 -245 0 -245 -120 0 -120 0 0 575 0 575 120 0
120 0 0 -230z"/>
</g>
</svg>
